<svg id="Layer_1" data-name="Layer 1" xmlns="http://www.w3.org/2000/svg" viewBox="0 0 599.5 577.39"><defs><style>.cls-1{fill:#f2f2f2;stroke-width:25px;}.cls-1,.cls-4{stroke:#000;stroke-miterlimit:10;}.cls-2{fill:#998675;}.cls-3{fill:#fff;}.cls-4{fill:none;}</style></defs><path class="cls-1" d="M965.09,795.41h0c-158.59,3.9-290.44-116.56-294.5-269h0C666.54,373.88,791.82,247.1,950.41,243.2h0c158.59-3.89,290.44,116.56,294.49,269.05h0C1249,664.74,1123.68,791.51,965.09,795.41Z" transform="translate(-658 -230.61)"/><path d="M903,410.51a235.09,235.09,0,0,0,10.94,39.25,3.08,3.08,0,0,0,3.69,2.09,3,3,0,0,0,2.1-3.69,234.29,234.29,0,0,1-10.94-39.24,3,3,0,1,0-5.79,1.59Z" transform="translate(-658 -230.61)"/><path d="M811.82,474.83l-.59,2.84a263.76,263.76,0,0,1-41.45-14,258.42,258.42,0,0,1-33.71-17.56c-4.47-2.76-9.26-6.27-9.88-11.33-.58-4.65,2.84-9.17,7.25-11.15a17.58,17.58,0,0,1,5.3-1.39c.38-.05.78-.09,1.17-.11a30.15,30.15,0,0,1,7.87.66c16.39,3.35,29,15.4,40.41,27.29.6.6,1.17,1.2,1.74,1.81Q800.9,463.39,811.82,474.83Z" transform="translate(-658 -230.61)"/><path d="M810.38,474.43l-.6,2.84,1.85-1a263.88,263.88,0,0,1-41.09-13.82q-9.72-4.18-19.07-9.16c-6-3.21-12.28-6.49-17.83-10.51a15.58,15.58,0,0,1-5.38-6,7.93,7.93,0,0,1,.88-7.64c3.7-5.63,11.29-6.14,17.33-5.05,12.22,2.19,22.56,9.63,31.46,17.92,5.35,5,10.34,10.34,15.39,15.63q8.73,9.12,17.44,18.26c1.34,1.4,3.46-.72,2.13-2.12L796.3,456.4c-4.87-5.09-9.67-10.25-14.77-15.12-9.23-8.82-19.86-16.91-32.56-19.75-6.62-1.48-14.28-1.57-19.74,3-4.65,3.92-6.1,10.44-2.49,15.56a24.85,24.85,0,0,0,6.65,6.07c3,2,6.08,3.77,9.18,5.55q9.76,5.61,20,10.36a267.89,267.89,0,0,0,48.25,17,1.5,1.5,0,0,0,1.84-1l.6-2.84C813.67,473.34,810.78,472.54,810.38,474.43Z" transform="translate(-658 -230.61)"/><path d="M738.12,426.79a60.55,60.55,0,0,0,22,30.18,59.34,59.34,0,0,0,9.34,5.62c1.73.84,3.25-1.75,1.51-2.59A58,58,0,0,1,741,426c-.58-1.83-3.48-1.05-2.89.8Z" transform="translate(-658 -230.61)"/><path class="cls-2" d="M1170.88,584.51c0,.06,0,.11.07.17l-.94.46c-11.79,38.15-34.46,77.89-73.93,89.87-27.85,8.45-58.83.89-83.76-13.72s-45-35.66-64.64-56.42l-1.42-1.23,0-2.12a231.05,231.05,0,0,1-36.11-3.26c-35.1-6-69-21.45-93.21-46.67-4.12-4.3-8.18-9.89-6.6-15.52a104,104,0,0,0,13.36,11c9.72,6.79,20.8,11.46,32.36,14.73.92.27,1.86.51,2.78.73a0,0,0,0,1,0,0,187.29,187.29,0,0,0,18.39,3.76,233.77,233.77,0,0,0,49.8,2.32h0a241.11,241.11,0,0,0,39.43-5.58c1.84-.42,3.68-.87,5.52-1.33h0a235.76,235.76,0,0,0,53.3-20.4h0q8.47-4.5,16.52-9.69c10.32-6.66,21.16-16.71,18.86-28.43-1.72-8.85-11-15-20.35-15.8s-18.5,2.7-26.61,7.23a161.69,161.69,0,0,0-16,10.4c-8.89,6.4-17.52,13.17-27.16,18.42a103.84,103.84,0,0,1-16.16,7c-1.12.39-2.25.75-3.38,1.1a135.3,135.3,0,0,1-44,5.39,176.41,176.41,0,0,1-27.76-3.21,251.86,251.86,0,0,1-36.69-10.33c-17-6.05-33.5-13.47-49.89-20.88l-1.08-.49c-10.18-4.6-21.39-10.26-24.88-20.55-2.09-6.19-.66-12.47,2.87-17.83a263.76,263.76,0,0,0,41.45,14l.59-2.84q-10.92-11.46-21.89-22.92c-.57-.61-1.14-1.21-1.74-1.81a31.88,31.88,0,0,1,4.49-1.08c15.87-2.59,31.72,3.25,47,8.06,41,12.89,91,17,123-10.94,17.88-15.67,28-39.78,49.52-50.24,15.47-7.51,34-6.33,50.83-2.21,13.22,3.25,26.16,8.3,36.79,16.51,25.06,19.4,33,52.37,37.92,82.94S1149.84,561.12,1170.88,584.51Z" transform="translate(-658 -230.61)"/><path d="M1168.29,586l.07.16,1.08-4.1c-2,1-2.38,2.47-3,4.45-.7,2.22-1.44,4.42-2.22,6.62-1.48,4.19-3.07,8.35-4.83,12.44a173,173,0,0,1-12.26,23.59c-9.11,14.52-21,27.6-36,36.12-17.16,9.74-37.24,12.17-56.53,8.72-20.56-3.68-39.37-13.14-56.06-25.49A260.16,260.16,0,0,1,971.44,625c-4.21-4.12-8.33-8.32-12.41-12.57-3.51-3.64-6.83-7.6-10.65-10.92l.88,2.12,0-2.12a3,3,0,0,0-3-3c-40.32-.65-81.78-11.24-113.75-36.78a136.72,136.72,0,0,1-12.08-10.87c-3.5-3.54-8.53-8.51-7.19-14l-5,1.33a101.73,101.73,0,0,0,25.59,18.35,131,131,0,0,0,28.83,10,229.69,229.69,0,0,0,66.78,4.9,245.33,245.33,0,0,0,63.42-12.81,239.35,239.35,0,0,0,29.42-12.39c9-4.5,18.2-9.51,26.29-15.67,6.8-5.19,13.78-12.08,15.21-20.91s-3.26-16.8-10.75-21.3c-18.5-11.1-40,2.13-55.15,12.92-8.62,6.13-16.94,12.73-26.1,18.06a105.49,105.49,0,0,1-29.51,11.46c-21.58,4.95-44.26,3.86-65.8-.74-21.7-4.63-42.51-12.68-62.79-21.52-9.36-4.07-18.93-8-28-12.74-7-3.71-14.77-8.85-16.51-17.19-1-4.78.58-9.45,3.14-13.45l-4.1,1.07a272.4,272.4,0,0,0,42.16,14.28,3,3,0,0,0,3.69-2.1c.43-2,1.19-3.93-.17-5.75a46.71,46.71,0,0,0-3.83-4l-4.1-4.3c-5.23-5.47-10.41-11-15.7-16.42L789,453c10.24-3.13,21.34-1.32,31.47,1.36,9.37,2.47,18.47,5.84,27.82,8.37,16.42,4.44,33.46,7.29,50.5,7.31,16.56,0,33.32-2.73,48.3-10A79.53,79.53,0,0,0,967,446.27c6-5.63,11-12.11,16.07-18.56,9.91-12.72,20.35-26.26,36.29-31.47,18.08-5.91,38.6-2,56,4.28a80.18,80.18,0,0,1,24.69,13.74,75.58,75.58,0,0,1,15.71,18.56c8.76,14.39,13.35,30.91,16.6,47.32s5.35,33.07,9.42,49.36c4.14,16.63,9.9,33.36,19.58,47.64a90.3,90.3,0,0,0,7.4,9.5c2.57,2.88,6.8-1.37,4.24-4.25-11.41-12.78-18.19-29-23-45.3-4.81-16.43-7.43-33.29-10.33-50.13-2.89-16.69-6.81-33.41-14.2-48.74-7.7-16-19.56-29.39-35.33-37.71a116.17,116.17,0,0,0-27-9.88,101.28,101.28,0,0,0-29.15-3.08,59.64,59.64,0,0,0-26.7,7.56c-7,4.07-13,9.68-18.29,15.74-10.77,12.27-19.4,26.77-32.71,36.6-13.16,9.72-29.15,14.64-45.33,16.07-17,1.5-34.21-.36-50.84-4.06-8.88-2-17.54-4.62-26.21-7.37-10.08-3.21-20.38-6.27-31-6.67a47,47,0,0,0-15.48,1.79,3,3,0,0,0-1.33,5c8,8.14,15.77,16.48,23.63,24.73l-.77-2.92-.59,2.84,3.69-2.1A263,263,0,0,1,771.3,461.1a3.11,3.11,0,0,0-4.11,1.08c-5.34,8.34-5.72,18.65.28,26.77,5,6.78,12.62,11,20.11,14.48C807,512.5,826.71,521.21,847,528.09c40,13.58,86.62,18.9,125.23-2.05,9.31-5,17.7-11.57,26.26-17.76s17.32-12.45,27.28-15.82c8.54-2.89,18.08-3.35,25.73,2.08,6.65,4.74,8.33,12.73,4.33,19.79-4.48,7.94-12.69,13.14-20.27,17.76a226.68,226.68,0,0,1-27.68,14.36,238.63,238.63,0,0,1-59.77,17A233.68,233.68,0,0,1,882,564c-20.16-2.76-40.52-8-57.37-19.93A100.67,100.67,0,0,1,812.52,534a3,3,0,0,0-5,1.33c-2.63,10.8,8.17,19.74,15.34,26.1a154.08,154.08,0,0,0,25,17.93,185.91,185.91,0,0,0,57.66,21.13,236.15,236.15,0,0,0,40.83,4.08l-3-3c0,1.56-.27,3.07.91,4.31,1.37,1.44,2.87,2.78,4.24,4.23,3.89,4.09,7.78,8.17,11.74,12.2,7.75,7.88,15.71,15.57,24.18,22.69,16.74,14.07,35.48,25.86,56.6,32,20.26,5.93,42.46,6.57,62.29-1.31,17.23-6.85,31.33-19.09,42.4-33.8,12.52-16.65,21.08-36.12,27.23-55.93l-1.38,1.79,1-.46c1.55-.75,1.71-2.73,1.07-4.1l-.07-.17C1171.85,579.5,1166.67,582.54,1168.29,586Z" transform="translate(-658 -230.61)"/><path d="M946.31,604.52a312,312,0,0,0,55.34-4.47c5.2-.86,10.38-1.84,15.55-2.9a3,3,0,0,0,2.09-3.69,3.07,3.07,0,0,0-3.69-2.1,337.63,337.63,0,0,1-53.73,6.94q-7.79.33-15.56.22c-3.87-.06-3.87,5.94,0,6Z" transform="translate(-658 -230.61)"/><path d="M807.54,535.07l0,.11v.05c0,.27-.09.54-.11.82v0a2.3,2.3,0,0,0,.26,1.16,2.34,2.34,0,0,0,.62,1,2.38,2.38,0,0,0,1,.62,2.28,2.28,0,0,0,1.15.25l.8-.1a3.13,3.13,0,0,0,1.33-.77l.46-.61a2.89,2.89,0,0,0,.41-1.52s0,0,0,0l-.11.8a.75.75,0,0,1,0-.16,2.33,2.33,0,0,0,0-1.2,2.11,2.11,0,0,0-.35-1.11,2.25,2.25,0,0,0-.78-.84,2.2,2.2,0,0,0-1-.54l-.79-.11a3,3,0,0,0-1.52.41l-.6.47a3,3,0,0,0-.78,1.32Z" transform="translate(-658 -230.61)"/><path class="cls-3" d="M859.55,560.23l-.63,2.34a0,0,0,0,0,0,0c-.92-.22-1.86-.46-2.78-.73-11.56-3.27-22.64-7.94-32.36-14.73a104,104,0,0,1-13.36-11c-9.55-9.39-16.79-20.81-17.52-33.51,16.39,7.41,32.92,14.83,49.89,20.88l-.45,1.17Z" transform="translate(-658 -230.61)"/><path d="M856.66,559.43l-.63,2.35,4.4-1.8a28.22,28.22,0,0,0-4.59-1.35c-1.57-.46-3.12-.94-4.67-1.45-2.9-1-5.78-2-8.6-3.19a94.2,94.2,0,0,1-16.22-8.73c-9.83-6.64-19.11-15.13-25-25.52a40,40,0,0,1-5.44-17.18l-4.51,2.59c16.66,7.53,33.37,15,50.6,21.18l-2.09-3.69a4.14,4.14,0,0,0,0,3.71c.8,1.71,1.65,3.41,2.48,5.11l4.84,10L857,561.75a3,3,0,0,0,5.18-3q-8.62-17.82-17.24-35.62l.31,2.31.44-1.17c.61-1.59-.69-3.19-2.09-3.69-16.75-6-33-13.26-49.18-20.58-1.9-.86-4.67.11-4.51,2.59.78,12.36,7,23.32,15.22,32.33a98.91,98.91,0,0,0,31.63,23q5.17,2.37,10.55,4.26,2.51.89,5.06,1.66c.85.26,1.7.52,2.55.76l1.36.38c.15,0,1.87.53,1.17.18a3,3,0,0,0,4.4-1.79l.63-2.34C863.44,557.3,857.66,555.7,856.66,559.43Z" transform="translate(-658 -230.61)"/><path d="M789.84,501.94c0,.21,0,.42,0,.62a2.2,2.2,0,0,0,.26,1.16,2.7,2.7,0,0,0,1.58,1.59,2.32,2.32,0,0,0,1.16.25l.8-.1a3,3,0,0,0,1.32-.77l.47-.61a3,3,0,0,0,.41-1.52c0-.2,0-.41,0-.62a2.32,2.32,0,0,0-.26-1.16A2.72,2.72,0,0,0,794,499.2a2.32,2.32,0,0,0-1.16-.26l-.8.11a2.94,2.94,0,0,0-1.32.77l-.47.61a3,3,0,0,0-.41,1.51Z" transform="translate(-658 -230.61)"/><path d="M772.37,465.21a25.4,25.4,0,0,1,3.34-4.09c.62-.63,1.27-1.23,1.94-1.81.34-.29.68-.58,1-.86.74-.6-.22.16.22-.17l.61-.45a35.77,35.77,0,0,1,4.62-2.84c.45-.23.9-.45,1.36-.66l.55-.25c.46-.21,0,0,.26-.11.88-.37,1.78-.69,2.69-1a3,3,0,1,0-1.59-5.78,37.78,37.78,0,0,0-20.21,15,3,3,0,0,0,1.08,4.1,3.06,3.06,0,0,0,4.1-1.07Z" transform="translate(-658 -230.61)"/><path d="M1056.11,462.54l15.56,45.27c2.43,7.08,4.73,14.21,7.35,21.22,2.39,6.4,5.42,12.92,10.58,17.57,4.66,4.2,11,7.16,17.42,6.61a19.3,19.3,0,0,0,14.35-8.58c3-4.32,4.46-9.62,5.17-14.76a96.54,96.54,0,0,0,.23-19.82,153,153,0,0,0-11.47-48.35,3.09,3.09,0,0,0-3.69-2.09c-1.4.39-2.72,2.18-2.09,3.69a148.13,148.13,0,0,1,10.65,40.3,135.09,135.09,0,0,1,.92,20.2,44,44,0,0,1-.77,7.11c-.22,1.15-.49,2.28-.81,3.41-.16.58-.34,1.15-.54,1.72l-.33.92s-.34.86-.18.49a23.84,23.84,0,0,1-1.59,3.1,12.86,12.86,0,0,1-1.94,2.6,12.28,12.28,0,0,1-5,3.36c-5.18,1.68-10.56.21-15-3.16-4.64-3.56-7.51-9-9.61-14.33-2.58-6.55-4.69-13.31-7-20L1061.9,461a3.08,3.08,0,0,0-3.69-2.1,3,3,0,0,0-2.1,3.69Z" transform="translate(-658 -230.61)"/><path d="M1003.34,434.39l-29.72,31.23c-2.66,2.8,1.58,7.05,4.25,4.25l29.71-31.24c2.66-2.8-1.58-7.05-4.24-4.24Z" transform="translate(-658 -230.61)"/><path class="cls-3" d="M1060.8,503.2c2.3,11.72-8.54,21.77-18.86,28.43q-8,5.21-16.52,9.69h0l-.5-.9c-9.33-11.71-17.71-23.67-27-35.39a161.69,161.69,0,0,1,16-10.4c8.11-4.53,17.27-8,26.61-7.23S1059.08,494.35,1060.8,503.2Z" transform="translate(-658 -230.61)"/><path d="M1057.91,504a14.44,14.44,0,0,1-.94,8,25.66,25.66,0,0,1-4.71,7.24c-4.63,5.17-10.41,9-16.29,12.59-1.9,1.16-3.83,2.3-5.77,3.41-1,.59-2.08,1.18-3.13,1.76l-1.47.8-.64.34c-.13.07-1,.48-.36.27l3.39,1.38a25.25,25.25,0,0,0-2.48-3.42l-3.4-4.38c-2.45-3.2-4.86-6.42-7.27-9.64-4.89-6.53-9.77-13.07-14.84-19.46l-.61,4.71c8.25-5.92,16.9-12,26.61-15.24a35.88,35.88,0,0,1,14.45-2,23.29,23.29,0,0,1,10.79,4,15.55,15.55,0,0,1,6.67,9.64,3,3,0,0,0,3.69,2.1,3.07,3.07,0,0,0,2.1-3.69c-1.91-9.26-10.71-15.68-19.59-17.49-10.89-2.21-21.94,1.7-31.4,6.9a163.73,163.73,0,0,0-16.34,10.62,3.07,3.07,0,0,0-.61,4.71c4.85,6.12,9.51,12.38,14.19,18.63q3.46,4.65,7,9.25c1.24,1.62,2.48,3.23,3.74,4.83.51.66,1.48,1.8,1.74,2.21-.09-.14.31.6.4.77a3,3,0,0,0,3.39,1.37,16.93,16.93,0,0,0,2.85-1.44c1-.53,2-1.07,2.93-1.62,2-1.1,3.88-2.22,5.79-3.38,3.42-2.06,6.83-4.17,10-6.56,6-4.43,11.68-9.77,14.61-16.74a20.94,20.94,0,0,0,1.29-12.06,3,3,0,0,0-3.69-2.1A3.07,3.07,0,0,0,1057.91,504Z" transform="translate(-658 -230.61)"/><path class="cls-3" d="M927,567l.11,1.66a233.77,233.77,0,0,1-49.8-2.32,187.29,187.29,0,0,1-18.39-3.76l.63-2.34-17.24-35.62.45-1.17a251.86,251.86,0,0,0,36.69,10.33A176.41,176.41,0,0,0,907.21,537v.09Q917.1,552,927,567Z" transform="translate(-658 -230.61)"/><path d="M924,567l.11,1.66,3-3a230.5,230.5,0,0,1-52.8-2.83c-4.9-.86-9.77-1.89-14.59-3.14l2.09,3.69c.2-.72.43-1.44.58-2.16.42-1.93-.84-3.7-1.65-5.39l-5.28-10.91L844.9,523.1l.31,2.31.44-1.17L842,526.33c16.33,5.82,33.09,10.37,50.32,12.48,5,.6,9.94,1,14.93,1.17l-2.89-3.8c-.29,1.77.6,2.88,1.53,4.27l2.61,3.95,5.36,8.11,10.59,16a3.06,3.06,0,0,0,4.1,1.07,3,3,0,0,0,1.08-4.1q-9.92-15-19.8-29.93l.3,2.32v-.09a3,3,0,0,0-2.89-3.8c-17-.59-33.65-3.93-49.87-8.86-4.63-1.41-9.22-3-13.78-4.57-1.63-.58-3.15.67-3.69,2.09a4.14,4.14,0,0,0,0,3.71c.8,1.71,1.65,3.41,2.48,5.11l4.84,10L857,561.75l-.3-2.32-.63,2.35a3,3,0,0,0,2.09,3.69,219.35,219.35,0,0,0,53.57,6.6q7.71,0,15.42-.42a3,3,0,0,0,3-3L930,567a3.08,3.08,0,0,0-3-3A3,3,0,0,0,924,567Z" transform="translate(-658 -230.61)"/><path class="cls-3" d="M971.62,560l-5.06,3.07a241.11,241.11,0,0,1-39.43,5.58h0L927,567q-9.91-15-19.8-29.92V537a135.3,135.3,0,0,0,44-5.39l4.15,1Z" transform="translate(-658 -230.61)"/><path d="M970.1,557.4c-1.55,1-3.08,2-4.68,2.84a2.61,2.61,0,0,1-.28.17c-.22.09.79-.09-.33,0a22.89,22.89,0,0,0-3.32.72c-2.38.49-4.76.95-7.16,1.37q-6.78,1.2-13.63,2c-2.41.27-4.83.52-7.26.72-1.13.1-2.26.18-3.4.26a18.48,18.48,0,0,0-3.73.3l3.8,2.9c-.05-.69-.06-1.38-.16-2.06-.27-1.7-1.89-3.43-2.84-4.85L921.34,553l-11.55-17.46.3,2.32v-.09l-2.89,2.2a138.79,138.79,0,0,0,44.77-5.5h-1.6l4.15,1-1.79-1.38L969,561.51c2,3.31,7.16.3,5.18-3l-9.42-15.84-4.58-7.7c-.76-1.28-1.46-2.63-2.29-3.85a3.75,3.75,0,0,0-2.45-1.54c-1.15-.28-2.31-.62-3.48-.85-1.39-.27-2.75.35-4.08.72s-2.87.78-4.31,1.13A123.43,123.43,0,0,1,927,533.37a151.25,151.25,0,0,1-19.74.61,3,3,0,0,0-2.89,2.2c-.29,1.77.6,2.88,1.53,4.27l2.61,3.95,5.36,8.11,10.59,16L924,567l.11,1.66a3,3,0,0,0,3.8,2.89c-.77.23,1,0,1.16,0l1.95-.14,3.39-.27q3.63-.33,7.26-.76,7.4-.87,14.74-2.18c2.39-.42,4.77-.89,7.15-1.39a16.69,16.69,0,0,0,4.89-1.36c1.58-.9,3.12-1.89,4.68-2.84C976.43,560.59,973.42,555.4,970.1,557.4Z" transform="translate(-658 -230.61)"/><path class="cls-3" d="M1025.4,541.32a235.76,235.76,0,0,1-53.3,20.4h0c-1.84.46-3.68.91-5.52,1.33l5.06-3.07L955.33,532.6l-4.15-1c1.13-.35,2.26-.71,3.38-1.1a103.84,103.84,0,0,0,16.16-7c9.64-5.25,18.27-12,27.16-18.42,9.31,11.72,17.69,23.68,27,35.39Z" transform="translate(-658 -230.61)"/><path d="M1023.88,538.73a232.68,232.68,0,0,1-45,18.07q-6.52,1.86-13.15,3.37l2.31,5.48,5.06-3.07a3,3,0,0,0,1.08-4.1l-11.84-19.9-2.93-4.93c-.9-1.51-1.62-3.4-3.43-4-1.31-.42-2.7-.66-4-1v5.78A110.28,110.28,0,0,0,977,523.26c7.77-4.75,15-10.32,22.35-15.64l-3.63-.47c4.85,6.12,9.51,12.38,14.19,18.63q3.46,4.65,7,9.25c1.24,1.62,2.48,3.23,3.74,4.83.51.66,1.48,1.8,1.74,2.21-.09-.14.31.6.4.77,1.86,3.38,7,.36,5.18-3a25.25,25.25,0,0,0-2.48-3.42l-3.4-4.38c-2.45-3.2-4.86-6.42-7.27-9.64-4.89-6.53-9.77-13.07-14.84-19.46a3,3,0,0,0-3.63-.47c-7.25,5.23-14.35,10.7-22,15.4a104.16,104.16,0,0,1-24,10.86c-2.73.84-3,5.06,0,5.78l4.15,1-1.79-1.38L969,561.51l1.07-4.11-5.05,3.07c-3,1.79-1,6.23,2.31,5.48a243.17,243.17,0,0,0,47-15.85q6.39-2.9,12.58-6.19a3,3,0,1,0-3-5.18Z" transform="translate(-658 -230.61)"/><path d="M1000.47,503.51l0,0v0l-.48-.62-.05-.07-.12-.14.47.61,0-.07a2.15,2.15,0,0,0-.77-.84,2.27,2.27,0,0,0-1-.53,3.28,3.28,0,0,0-2.31.3l-.61.47a2.94,2.94,0,0,0-.77,1.32l-.11.8a3,3,0,0,0,.41,1.51l0,0v0l.48.62.06.07.11.13-.47-.6,0,.06a2.23,2.23,0,0,0,.77.84,2.2,2.2,0,0,0,1,.54,2.23,2.23,0,0,0,1.2.05,2.11,2.11,0,0,0,1.11-.35l.61-.47a3,3,0,0,0,.77-1.32l.11-.8a3,3,0,0,0-.41-1.52Z" transform="translate(-658 -230.61)"/><path class="cls-4" d="M861.81,0" transform="translate(-658 -230.61)"/></svg>